<?xml version="1.0" encoding="UTF-8" standalone="no"?><!-- Generator: Gravit.io --><svg xmlns="http://www.w3.org/2000/svg" xmlns:xlink="http://www.w3.org/1999/xlink" style="isolation:isolate" viewBox="50 50 340 110" width="390.89" height="110.276"><defs><clipPath id="_clipPath_GcwrqyDTHuRswORFHGYcFPxeRnkFFdV3"><rect width="390" height="160"/></clipPath></defs><g clip-path="url(#_clipPath_GcwrqyDTHuRswORFHGYcFPxeRnkFFdV3)"><linearGradient id="_lgradient_0" x1="0.49996309270369643" y1="1.000000865072335" x2="0.4999630927036965" y2="8.650723350989153e-7" gradientTransform="matrix(15.501,0,0,67.74,48.909,82.364)" gradientUnits="userSpaceOnUse"><stop offset="0%" stop-opacity="1" style="stop-color:rgb(87,191,214)"/><stop offset="10%" stop-opacity="1" style="stop-color:rgb(87,191,214)"/><stop offset="20%" stop-opacity="1" style="stop-color:rgb(87,191,214)"/><stop offset="30.000000000000004%" stop-opacity="1" style="stop-color:rgb(84,190,215)"/><stop offset="40%" stop-opacity="1" style="stop-color:rgb(73,185,217)"/><stop offset="50%" stop-opacity="1" style="stop-color:rgb(62,180,219)"/><stop offset="60%" stop-opacity="1" style="stop-color:rgb(51,175,221)"/><stop offset="70%" stop-opacity="1" style="stop-color:rgb(40,171,223)"/><stop offset="80%" stop-opacity="1" style="stop-color:rgb(37,169,224)"/><stop offset="89.99999999999999%" stop-opacity="1" style="stop-color:rgb(37,169,224)"/><stop offset="99.99999999999999%" stop-opacity="1" style="stop-color:rgb(37,169,224)"/></linearGradient><path d=" M 48.909 89.34 L 48.909 143.128 C 48.909 148.244 52.784 150.104 56.659 150.104 L 56.659 150.104 C 60.534 150.104 64.41 148.244 64.41 143.128 L 64.41 143.128 L 64.41 89.34 C 64.41 84.224 60.534 82.364 56.659 82.364 L 56.659 82.364 C 52.784 82.364 48.909 84.224 48.909 89.34 Z " fill="url(#_lgradient_0)"/><path d=" M 89.375 113.829 L 89.375 144.129 C 89.375 149.244 85.5 151.104 81.625 151.104 C 77.75 151.104 73.875 149.244 73.875 144.129 L 73.875 89.34 C 73.875 84.225 77.75 82.364 81.625 82.364 C 85.034 82.364 88.29 83.76 89.22 87.635 C 89.375 88.1 89.685 88.72 90.305 88.72 C 90.77 88.72 91.234 88.41 91.234 88.41 C 95.729 84.689 101.619 82.364 109.68 82.364 C 128.279 82.364 135.874 96.005 135.874 112.744 L 135.874 144.129 C 135.874 149.244 131.999 151.104 128.124 151.104 C 124.249 151.104 120.374 149.244 120.374 144.129 L 120.374 118.635 C 120.374 107.319 120.064 96.625 104.874 96.625 C 97.59 96.625 89.375 99.415 89.375 113.829 Z " fill="rgb(230,231,232)"/><linearGradient id="_lgradient_1" x1="0.8830230119059799" y1="0.8582081059935045" x2="0.21350777363186557" y2="-0.04883820932979044" gradientTransform="matrix(49.881,0,0,67.74,85.993,82.364)" gradientUnits="userSpaceOnUse"><stop offset="0%" stop-opacity="1" style="stop-color:rgb(87,191,214)"/><stop offset="10%" stop-opacity="1" style="stop-color:rgb(87,191,214)"/><stop offset="20%" stop-opacity="1" style="stop-color:rgb(87,191,214)"/><stop offset="30.000000000000004%" stop-opacity="1" style="stop-color:rgb(84,190,215)"/><stop offset="40%" stop-opacity="1" style="stop-color:rgb(73,185,217)"/><stop offset="50%" stop-opacity="1" style="stop-color:rgb(62,180,219)"/><stop offset="60%" stop-opacity="1" style="stop-color:rgb(51,175,221)"/><stop offset="70%" stop-opacity="1" style="stop-color:rgb(40,171,223)"/><stop offset="80%" stop-opacity="1" style="stop-color:rgb(37,169,224)"/><stop offset="89.99999999999999%" stop-opacity="1" style="stop-color:rgb(37,169,224)"/><stop offset="99.99999999999999%" stop-opacity="1" style="stop-color:rgb(37,169,224)"/></linearGradient><path d=" M 91.234 88.41 C 91.234 88.41 90.77 88.72 90.304 88.72 L 90.304 88.72 C 89.684 88.72 89.375 88.1 89.22 87.634 L 89.22 87.634 C 89.047 86.912 88.792 86.278 88.472 85.722 L 88.472 85.722 C 87.146 87.191 86.314 89.062 86.271 91.467 L 86.271 91.467 C 86.18 96.73 86.089 101.992 85.997 107.253 L 85.997 107.253 C 85.986 107.905 85.978 108.579 86.228 109.18 L 86.228 109.18 C 86.688 110.283 87.869 110.862 88.898 111.468 L 88.898 111.468 C 89.083 111.578 89.258 111.697 89.438 111.812 L 89.438 111.812 C 90.178 99.158 97.944 96.624 104.874 96.624 L 104.874 96.624 C 120.065 96.624 120.374 107.319 120.374 118.635 L 120.374 118.635 L 120.374 143.128 C 120.374 148.244 124.249 150.104 128.124 150.104 L 128.124 150.104 C 131.999 150.104 135.874 148.244 135.874 143.128 L 135.874 143.128 L 135.874 112.744 C 135.874 96.004 128.279 82.364 109.68 82.364 L 109.68 82.364 C 101.619 82.364 95.73 84.689 91.234 88.41 Z " fill="url(#_lgradient_1)"/><path d=" M 91.234 88.405 C 91.234 88.405 90.77 88.714 90.304 88.714 L 90.304 88.714 C 89.684 88.714 89.375 88.095 89.22 87.63 L 89.22 87.63 C 89.047 86.908 88.792 86.273 88.472 85.716 L 88.472 85.716 C 87.146 87.186 86.314 89.057 86.271 91.463 L 86.271 91.463 C 86.18 96.725 86.089 101.987 85.997 107.249 L 85.997 107.249 C 85.986 107.901 85.978 108.574 86.228 109.176 L 86.228 109.176 C 86.688 110.279 87.869 110.858 88.898 111.464 L 88.898 111.464 C 89.083 111.573 89.258 111.693 89.438 111.808 L 89.438 111.808 C 90.178 99.153 97.944 96.62 104.874 96.62 L 104.874 96.62 C 110.619 96.62 114.234 98.152 116.51 100.665 L 116.51 100.665 C 116.788 97.39 116.529 94.085 115.5 90.974 L 115.5 90.974 C 114.39 87.621 112.318 84.527 109.556 82.364 L 109.556 82.364 C 101.562 82.388 95.706 84.705 91.234 88.405 Z " fill="none"/><path d=" M 131.649 133.151 C 131.453 132.537 131.354 131.794 131.354 130.93 C 131.354 130.19 131.492 129.492 131.767 128.832 C 132.472 127.23 133.626 126.427 135.233 126.427 C 136.722 126.469 138.15 127.38 139.523 129.164 C 139.953 129.744 140.363 130.282 140.754 130.779 C 146.24 137.908 151.5 141.474 156.536 141.474 C 161.495 141.474 165.743 139.589 169.286 135.815 C 172.747 132.085 173.532 127.652 173.532 122.511 C 173.493 118.075 172.386 114.304 170.217 111.193 C 168.48 108.666 165.4 106.056 160.978 103.359 C 156.32 100.501 153.546 98.738 152.656 98.077 C 150.646 96.587 147.998 95.056 146.609 93.482 C 143.088 89.509 141.33 84.606 141.33 78.769 C 141.33 78.025 141.368 77.239 141.447 76.41 C 141.997 70.119 144.445 64.823 148.798 60.518 C 153.265 56.174 158.519 54 164.556 54 C 167.144 54 169.672 54.435 172.14 55.3 C 177.274 57.158 181.233 60.379 184.013 64.963 C 184.484 66.201 184.72 67.109 184.72 67.687 C 184.72 68.431 184.522 69.174 184.13 69.918 C 183.27 71.446 182.036 72.21 180.429 72.21 C 179.019 72.21 177.076 71.815 176.489 71.028 C 172.467 65.931 169.092 64.362 164.475 64.317 C 160.841 64.317 158.57 64.707 155.768 67.484 C 152.648 70.593 151.089 74.385 151.089 78.863 C 151.089 81.64 150.952 84.127 152.57 86.323 C 154.029 88.313 156.892 90.656 161.159 93.349 C 165.816 96.25 170.233 98.674 172.521 100.612 C 179.855 106.808 184.467 114.076 184.467 122.422 C 184.467 124.279 184.289 126.14 183.935 127.996 C 182.636 134.563 179.39 140.035 174.194 144.414 C 168.918 148.873 163.034 151.105 156.54 151.105 C 152.326 151.105 148.262 149.952 144.339 147.648 C 138.934 144.401 134.703 139.568 131.649 133.151 Z " fill="rgb(37,169,224)"/><path d=" M 187.707 130.353 C 187.707 128.946 187.784 127.456 187.943 125.88 C 188.765 118.797 190.879 112.502 194.286 106.993 C 198.479 100.243 198.447 96.868 209.328 96.868 C 210.112 96.868 210.953 96.929 211.854 97.052 C 216.007 97.675 218.16 99.269 218.318 101.836 C 218.277 103.825 216.615 104.881 213.324 105.005 L 211.326 105.005 C 210.581 105.005 209.856 105.11 209.152 105.316 C 205.547 106.435 202.492 109.893 199.984 115.691 C 197.674 121.034 196.52 126.419 196.52 131.844 C 196.52 134.619 196.97 136.711 197.87 138.119 C 198.928 139.692 201.044 140.626 204.216 140.916 C 205.587 140.916 206.958 140.75 208.329 140.42 C 210.835 139.84 213.793 138.368 217.201 136.007 C 219.434 134.476 221.001 133.708 221.902 133.708 C 222.449 133.708 222.997 133.893 223.545 134.267 C 224.76 135.096 225.368 136.255 225.368 137.747 C 225.368 138.202 225.269 138.698 225.075 139.238 C 224.055 141.682 221.196 144.084 216.498 146.444 C 211.403 148.97 206.702 150.234 202.395 150.234 C 192.68 150.193 187.784 143.565 187.707 130.353 Z " fill="rgb(37,169,224)"/><path d=" M 235.453 147.733 C 234.67 149.878 232.73 150.608 230.883 150.608 C 230.368 150.608 229.853 150.502 229.339 150.296 C 227.278 149.467 226.249 147.541 226.249 144.518 L 226.249 143.545 L 236.237 62.759 C 236.822 57.955 238.443 55.533 241.099 55.49 C 241.725 55.49 242.311 55.573 242.856 55.739 C 244.34 56.32 245.085 58.064 245.085 60.97 C 245.085 64.54 243.73 79.71 241.027 106.481 C 243.825 101.023 247.813 98.278 252.996 98.233 C 254.848 98.233 256.569 98.876 258.159 100.159 C 260.426 101.982 261.56 104.406 261.56 107.429 L 261.56 110.907 C 261.521 115.174 261.502 118.555 261.502 121.052 C 261.502 129.671 261.717 134.666 262.148 136.038 C 262.225 136.332 262.325 136.642 262.442 136.975 C 263.616 140.264 265.184 141.909 267.144 141.909 C 267.534 141.909 267.945 141.866 268.376 141.781 C 269.512 141.487 271.177 140.49 273.371 138.797 C 275.524 137.102 277.249 136.256 278.541 136.256 C 279.012 136.256 279.482 136.4 279.952 136.69 C 281.204 137.477 281.832 138.72 281.832 140.419 C 281.832 140.543 281.811 140.708 281.774 140.915 C 281.498 142.903 279.872 144.974 276.896 147.127 C 273.253 149.695 269.648 150.98 266.084 150.98 C 264.675 150.98 263.342 150.792 262.09 150.42 C 255.548 148.391 252.277 141.267 252.277 129.048 C 252.277 128.014 252.316 126.398 252.395 124.201 C 252.511 121.592 252.573 119.563 252.573 118.114 C 252.573 111.986 252.088 108.878 251.123 108.796 C 250.934 108.796 250.731 108.838 250.507 108.918 C 248.387 109.834 245.691 114.489 242.417 122.884 C 239.553 130.367 237.712 136.663 236.895 141.775" fill="rgb(37,169,224)"/><path d=" M 296.755 116.127 L 297.578 116.127 C 296.991 110.452 295.578 107.595 293.347 107.553 C 293.152 107.553 292.955 107.574 292.76 107.614 C 291.897 107.947 291.467 108.629 291.467 109.664 C 291.467 110.576 291.603 111.466 291.88 112.336 C 292.739 114.863 294.366 116.127 296.755 116.127 Z  M 297.754 124.575 C 296.227 124.535 294.777 124.369 293.406 124.078 C 288.236 122.919 284.906 120.019 283.418 115.381 C 282.398 118.853 281.892 122.632 281.892 126.723 C 281.892 128.706 282.066 130.628 282.419 132.486 C 283.516 138.147 285.905 140.977 289.588 140.977 C 290.801 140.977 291.897 140.587 292.878 139.801 C 295.737 137.49 297.362 132.416 297.754 124.575 Z  M 290.293 98.234 C 291.664 98.274 292.955 98.419 294.169 98.668 C 300.202 100.036 303.903 105.005 305.275 113.579 C 306.018 113.123 307.252 112.273 308.976 111.032 C 311.326 109.334 314.706 107.847 315.919 107.847 C 316.506 107.847 316.408 108.63 316.028 109.044 C 317.24 109.872 317.848 110.99 317.848 112.397 C 317.81 113.808 316.946 115.359 315.263 117.058 C 312.874 119.378 309.779 121.345 305.98 122.958 C 305.941 129.421 305.019 134.888 303.218 139.362 C 300.281 146.651 295.462 150.296 288.765 150.296 C 286.375 150.296 283.986 149.487 281.597 147.872 C 276.073 144.022 273.313 137.083 273.313 127.061 C 273.313 121.013 274.271 115.507 276.189 110.534 C 279.208 102.706 283.907 98.607 290.293 98.234 Z " fill="rgb(37,169,224)"/><path d=" M 333.537 116.127 L 334.359 116.127 C 333.772 110.452 332.36 107.595 330.128 107.553 C 329.933 107.553 329.737 107.574 329.542 107.614 C 328.678 107.947 328.247 108.629 328.247 109.664 C 328.247 110.576 328.384 111.466 328.661 112.336 C 329.52 114.863 331.147 116.127 333.537 116.127 Z  M 334.536 124.575 C 333.008 124.535 331.558 124.369 330.187 124.078 C 325.017 122.919 321.687 120.019 320.199 115.381 C 319.179 118.853 318.672 122.632 318.672 126.723 C 318.672 128.706 318.847 130.628 319.2 132.486 C 320.297 138.147 322.687 140.977 326.369 140.977 C 327.582 140.977 328.678 140.587 329.659 139.801 C 332.518 137.49 334.143 132.416 334.536 124.575 Z  M 327.074 98.234 C 328.445 98.274 329.737 98.419 330.951 98.668 C 336.983 100.036 340.684 105.005 342.056 113.579 C 342.8 113.123 344.033 112.273 345.757 111.032 C 348.107 109.334 349.889 108.484 351.105 108.484 C 351.691 108.484 352.259 108.671 352.809 109.044 C 354.021 109.872 354.629 110.99 354.629 112.397 C 354.591 113.808 353.727 115.359 352.044 117.058 C 349.655 119.378 346.56 121.345 342.761 122.958 C 342.722 129.421 341.801 134.888 339.999 139.362 C 337.062 146.651 332.244 150.296 325.547 150.296 C 323.156 150.296 320.767 149.487 318.378 147.872 C 312.854 144.022 310.094 137.083 310.094 127.061 C 310.094 121.013 311.052 115.507 312.97 110.534 C 315.99 102.706 320.688 98.607 327.074 98.234 Z " fill="rgb(37,169,224)"/><path d=" M 370.201 64.685 C 367.889 64.727 365.851 65.784 364.089 67.856 C 359.623 73.203 357.176 84.374 356.745 101.369 C 359.095 98.842 361.445 95.857 363.795 92.416 C 370.297 83.006 373.548 75.069 373.548 68.603 C 373.548 68.27 373.469 67.877 373.312 67.421 C 372.686 65.597 371.648 64.685 370.201 64.685 Z  M 374.196 150.42 C 364.755 150.006 357.764 143.919 353.219 132.154 C 349.852 123.293 348.167 112.44 348.167 99.601 C 348.167 98.937 348.205 98.09 348.284 97.053 C 348.833 88.315 350.36 80.3 352.867 73.01 C 356.939 61.247 362.698 55.366 370.141 55.366 C 370.533 55.366 370.943 55.388 371.376 55.427 C 378.151 55.88 381.54 60.04 381.54 67.907 C 381.54 76.478 378.052 86.001 371.081 96.476 C 366.654 103.142 362.012 108.545 357.156 112.686 C 358.487 120.564 359.957 126.469 361.562 130.406 C 364.538 137.702 368.966 141.349 374.841 141.349 C 375.232 141.349 375.644 141.307 376.075 141.225 C 377.367 140.977 379.17 139.98 381.482 138.24 C 383.714 136.623 385.455 135.815 386.71 135.815 C 387.259 135.815 387.787 136.002 388.296 136.374 C 389.432 137.203 390 138.323 390 139.731 C 389.922 141.887 388.472 144.102 385.653 146.382 C 382.127 149.074 378.306 150.42 374.196 150.42 Z " fill="rgb(37,169,224)"/><path d=" M 56.659 72.91 C 51.079 72.91 47.204 68.88 47.204 63.455 C 47.204 57.875 51.079 54 56.659 54 C 62.084 54 66.113 57.875 66.113 63.455 C 66.113 68.88 62.084 72.91 56.659 72.91 Z " fill="rgb(37,169,224)"/><linearGradient id="_lgradient_2" x1="0.4999827741935494" y1="0.0000045461157989201695" x2="1.4999790805653848" y2="16331179031669730" gradientTransform="matrix(15.5,0,0,68.74,73.875,82.364)" gradientUnits="userSpaceOnUse"><stop offset="0%" stop-opacity="1" style="stop-color:rgb(87,191,214)"/><stop offset="10%" stop-opacity="1" style="stop-color:rgb(87,191,214)"/><stop offset="20%" stop-opacity="1" style="stop-color:rgb(87,191,214)"/><stop offset="30.000000000000004%" stop-opacity="1" style="stop-color:rgb(84,190,215)"/><stop offset="40%" stop-opacity="1" style="stop-color:rgb(73,185,217)"/><stop offset="50%" stop-opacity="1" style="stop-color:rgb(62,180,219)"/><stop offset="60%" stop-opacity="1" style="stop-color:rgb(51,175,221)"/><stop offset="70%" stop-opacity="1" style="stop-color:rgb(40,171,223)"/><stop offset="80%" stop-opacity="1" style="stop-color:rgb(37,169,224)"/><stop offset="89.99999999999999%" stop-opacity="1" style="stop-color:rgb(37,169,224)"/><stop offset="99.99999999999999%" stop-opacity="1" style="stop-color:rgb(37,169,224)"/></linearGradient><path d=" M 73.875 89.34 L 73.875 144.129 C 73.875 149.244 77.75 151.104 81.625 151.104 L 81.625 151.104 C 85.5 151.104 89.375 149.244 89.375 144.129 L 89.375 144.129 L 89.375 113.829 L 89.375 88.013 C 89.312 87.885 89.259 87.755 89.22 87.634 L 89.22 87.634 C 88.29 83.76 85.034 82.364 81.625 82.364 L 81.625 82.364 C 77.75 82.364 73.875 84.224 73.875 89.34 Z " fill="url(#_lgradient_2)"/><path d=" M 89.383 89.186 C 89.383 93.471 85.909 96.944 81.625 96.944 C 77.34 96.944 73.867 93.471 73.867 89.186 C 73.867 84.902 77.34 81.428 81.625 81.428 C 85.909 81.428 89.383 84.902 89.383 89.186 Z " fill="rgb(37,169,224)"/><path d=" M 64.417 143.347 C 64.417 147.631 60.943 151.105 56.659 151.105 C 52.374 151.105 48.901 147.631 48.901 143.347 C 48.901 139.062 52.374 135.589 56.659 135.589 C 60.943 135.589 64.417 139.062 64.417 143.347 Z " fill="rgb(37,169,224)"/><path d=" M 135.874 143.347 C 135.874 147.631 132.401 151.105 128.116 151.105 C 123.832 151.105 120.358 147.631 120.358 143.347 C 120.358 139.062 123.832 135.589 128.116 135.589 C 132.401 135.589 135.874 139.062 135.874 143.347 Z " fill="rgb(37,169,224)"/></g></svg>