<svg class="width-80 svg--center" viewBox="0 0 465.83 508.9" xmlns="http://www.w3.org/2000/svg"><defs><style type="text/css">
<!--/*-->/* &gt;&lt;!--*/
.\35 2d8348e-012f-4d43-9c2d-ef4cc77cb2d2{fill:#513684;}.a66fcd6c-8347-483d-aa59-144aa31eb59b{fill:#a966ff;}.\33 ea23cee-e360-4a7b-8c7c-536cc1348db4{fill:#ffdf5e;}.a0229a05-89e4-4a21-ae93-ed483eb930b7{fill:#24c4aa;}.\31 96545b9-4bcc-4ddb-b797-06bc329ed29e{fill:#45c0d6;}.\38 778c062-daf7-4750-bf8e-eadd5dcc39cc{fill:#ff4da3;}.af15cbfc-96e5-4fbd-9423-66b1175e052b{opacity:0.58;}.\37 d150e5c-6cf4-4967-a515-eb5fe2454e0e{fill:#3799ab;}.c67140a0-1f51-41ac-8b86-a527e8dd4378{fill:#fff;}.d7313fc9-fa5c-42a9-8f3f-a13bb11ed7d8{opacity:0.17;}.fd854451-dc59-47c8-abc2-31ab68b4efce{fill:#0c506b;}.\37 d5b9191-3bf7-43c8-86ef-d80b2a2c38a1{opacity:0.37;}.\32 adad8fb-d833-4d0b-acf2-fae97487976b{fill:#942d5f;}.f5aed083-1504-445b-9b4b-7a5dfc406325{opacity:0.36;}.\36 24c142b-823c-4abe-a05b-543097fb2698{fill:#5a228c;}.\39 aceae16-0706-404a-872d-60f6dbdc4b79{opacity:0.52;}.\36 8833130-0731-42a0-944b-6f7ad32a7d8a{fill:#947c51;}.c506c41f-515d-4a0d-a7a3-e933836a4a06{fill:#25b8cc;}.\30 83db380-ff31-4b4f-93b8-33e85e889786{fill:#211535;opacity:0.33;}.\39 b09570b-fbc9-40da-8ea1-f635de67b92b{fill:#c2a4ed;}.c4753bb4-8b3a-4916-805e-e6b447e33bfb{fill:#a381d2;}.\33 8bc613d-673b-4cc3-b395-6837e24bad74{fill:none;}.\39 db70580-a8ff-493c-809e-ff5de1fa1841{fill:#dbc5fc;}.\33 e0e9682-ce22-4464-9e06-442ce24e360a,.\39 20062ad-e2a1-4dbd-b549-6908ed08dae3{fill:#6c3ea8;}.\30 ad13cf0-2787-4b21-93ac-9eb17b01b62a{fill:#682a78;}.\39 56cb5b6-1a5e-4251-9f43-a6d2d2dba366{fill:#5e3999;}.\39 20062ad-e2a1-4dbd-b549-6908ed08dae3{opacity:0.3;}.f452e88f-9ee5-46ef-9744-861906ccbb73{fill:#29144d;opacity:0;}

/*--&gt;&lt;!*/
</style></defs><title></title><g data-name="profil-utilisateur-orientoi" id="ae2e3400-2c4f-4f0d-ad17-96758f5f6e7e"><g data-name="orientoi-profil" id="b832ee91-8c7a-4695-b3c7-483ad643fb52"><path class="52d8348e-012f-4d43-9c2d-ef4cc77cb2d2" d="M214.44,292s-3-.63-4.46,3.25a3.28,3.28,0,0,0-.25,1.34,2.52,2.52,0,0,0,.11.61c.59,1.6,3.33,2.18,4.19,2.33-.86-.15-3.6-.73-4.19-2.33.7,2.23,4.47,2.77,4.47,2.77l0-2.74v0l.08-4.44Z"></path><path class="a66fcd6c-8347-483d-aa59-144aa31eb59b" d="M348.23,467.11a41.25,41.25,0,1,0,13.17-62.47l-14.18-2.58.15,14.47A41.25,41.25,0,0,0,348.23,467.11Z"></path><path class="3ea23cee-e360-4a7b-8c7c-536cc1348db4" d="M431.6,309.37a33.57,33.57,0,1,0-32.1-40.85l-9,7.51,9.11,7.46A33.58,33.58,0,0,0,431.6,309.37Z"></path><path class="a0229a05-89e4-4a21-ae93-ed483eb930b7" d="M161.45,462.41a33,33,0,1,0,49.26-13.3l-3.32-11-10.24,5.36A33,33,0,0,0,161.45,462.41Z"></path><path class="196545b9-4bcc-4ddb-b797-06bc329ed29e" d="M321.84,68.12a68.12,68.12,0,1,0-81.58,66.79l15.59,18,14.77-18.78A68.15,68.15,0,0,0,321.84,68.12Z"></path><path class="8778c062-daf7-4750-bf8e-eadd5dcc39cc" d="M54.6,251.56a54.6,54.6,0,1,0,53.52,65.38l14.43-12.49-15-11.84A54.63,54.63,0,0,0,54.6,251.56Z"></path><g class="af15cbfc-96e5-4fbd-9423-66b1175e052b"><polygon class="7d150e5c-6cf4-4967-a515-eb5fe2454e0e" points="259.55 90.83 259.55 81.13 269.14 81.13 269.14 73.77 259.55 73.77 259.55 64.06 251.85 64.06 251.85 73.77 242.37 73.77 242.37 81.35 252.07 81.35 252.07 90.83 259.55 90.83"></polygon><path class="7d150e5c-6cf4-4967-a515-eb5fe2454e0e" d="M302.75,40.67a18.62,18.62,0,0,0-4.09-2.59c-.13-.14-.27-.14-.41-.27a5.61,5.61,0,0,0-2.86-1.09,2.26,2.26,0,0,0-1.36.41A3.52,3.52,0,0,0,292.4,40a3,3,0,0,0,1.77,2.18,3.35,3.35,0,0,0,1.09.27,2.79,2.79,0,0,0,1.5-.41,3.12,3.12,0,0,1,1.09-.27c.95,0,2,1.22,3,3.27,1.23,2.86-.13,6.26-1.36,9.26l-.82,2c-1.09,2.86-2.18,5.86-3.27,8.72a2.61,2.61,0,0,0-1.49,2c-1,6.13-4.09,6.67-5,6.67h-.28c-1.5,0-2.72-1.09-3.67-3l-.41-.68a12.56,12.56,0,0,1-1-3,2.39,2.39,0,0,0-1.22-1.78,1,1,0,0,0-.28-.54c-1.49-4.22-3.54-9.81-5.31-15.39a6.22,6.22,0,0,1,1.91-6.81c.54-.41,1.09-.82,1.63-.69.28,0,.41.14.68.28a4.16,4.16,0,0,0,1.37.41h.13a3.06,3.06,0,0,0,3.27-2.86,2.8,2.8,0,0,0-.81-2,2.4,2.4,0,0,0-2.18-.68,5.57,5.57,0,0,0-2.18.55l-1.23.4a8.67,8.67,0,0,0-5.45,4.36,11.11,11.11,0,0,0-.82,8.59c1.64,5,3.41,10.35,5.18,15.8a2.73,2.73,0,0,0-.14,1.5,22.57,22.57,0,0,0,1.23,4.22A12.54,12.54,0,0,0,284,78.13l1.64.82h.54a19.9,19.9,0,0,1-.27,2.86,28.1,28.1,0,0,1-6.13,14.85,30.82,30.82,0,0,1-37.19,8.44l-1.36-.68-.82.14-1.36.27a16.92,16.92,0,0,1-3.54.82,4,4,0,0,1-1.23.13l-.68.14a21.38,21.38,0,0,1-6.54-.14h-.27c-.41,0-.68-.13-1-.13l3.81-3.82,1-1,2.32-2.73-2-2.86a30.65,30.65,0,0,1-5.45-21.93,29.59,29.59,0,0,1,6.54-15.12,30.22,30.22,0,0,1,20.7-11.31,6.11,6.11,0,0,0,5.31,3.41,5.86,5.86,0,1,0,0-11.71,6,6,0,0,0-5.45,3.54A34.6,34.6,0,0,0,228,55.38,35,35,0,0,0,220.47,73a35.38,35.38,0,0,0,6.13,25.2l-.41.41-4.35,4.23a4.43,4.43,0,0,0-1.23,4.35c.68,1.91,2.45,3.14,5.58,3.55h.28a30.42,30.42,0,0,0,7.76.13l.55-.13c.41,0,.95-.14,1.49-.14,1.37-.27,2.59-.55,4-1h0a31.94,31.94,0,0,0,10.62,3.13,32.43,32.43,0,0,0,5,.27,35.42,35.42,0,0,0,27.65-13.35A35,35,0,0,0,291,82.08a32.63,32.63,0,0,0,.27-3.54,9,9,0,0,0,4.9-3.41,17.54,17.54,0,0,0,3-7.35V66.69c.13-.55.41-1.09.54-1.77.68-2.05,1.5-4.23,2.18-6.27.82-2.45,1.77-4.9,2.59-7.49a11.15,11.15,0,0,0,.68-3.82A8.45,8.45,0,0,0,302.75,40.67Z"></path></g><polygon class="c67140a0-1f51-41ac-8b86-a527e8dd4378" points="255.08 82.96 255.08 73.26 264.68 73.26 264.68 65.9 255.08 65.9 255.08 56.19 247.38 56.19 247.38 65.9 237.9 65.9 237.9 73.48 247.61 73.48 247.61 82.96 255.08 82.96"></polygon><path class="c67140a0-1f51-41ac-8b86-a527e8dd4378" d="M298.29,32.8a18.85,18.85,0,0,0-4.09-2.59c-.14-.14-.27-.14-.41-.27a5.68,5.68,0,0,0-2.86-1.09,2.24,2.24,0,0,0-1.36.41,3.53,3.53,0,0,0-1.64,2.86,3.06,3.06,0,0,0,1.77,2.18,3.35,3.35,0,0,0,1.09.27,2.76,2.76,0,0,0,1.5-.41,3.12,3.12,0,0,1,1.09-.27c.95,0,2,1.22,3,3.27,1.22,2.86-.14,6.26-1.36,9.26l-.82,2c-1.09,2.86-2.18,5.86-3.27,8.72a2.63,2.63,0,0,0-1.5,2c-.95,6.13-4.09,6.68-5,6.68h-.27c-1.5,0-2.73-1.09-3.68-3l-.41-.68a12.17,12.17,0,0,1-.95-3,2.43,2.43,0,0,0-1.23-1.77,1,1,0,0,0-.27-.54c-1.5-4.22-3.54-9.81-5.31-15.39a6.24,6.24,0,0,1,1.9-6.82c.55-.4,1.09-.81,1.64-.68.27,0,.41.14.68.28a4.17,4.17,0,0,0,1.36.4H278a3.07,3.07,0,0,0,3.27-2.86,2.77,2.77,0,0,0-.82-2,2.39,2.39,0,0,0-2.18-.68,5.74,5.74,0,0,0-2.18.54l-1.22.41a8.65,8.65,0,0,0-5.45,4.36,11,11,0,0,0-.82,8.58c1.63,5,3.4,10.36,5.18,15.81a2.6,2.6,0,0,0-.14,1.49,21.25,21.25,0,0,0,1.23,4.23,12.54,12.54,0,0,0,4.63,5.72l1.63.82h.55a19.92,19.92,0,0,1-.28,2.86,27.91,27.91,0,0,1-6.13,14.84,30.85,30.85,0,0,1-37.18,8.45l-1.37-.68-.81.13-1.37.28a16,16,0,0,1-3.54.81,3.64,3.64,0,0,1-1.22.14l-.68.14a21.38,21.38,0,0,1-6.54-.14h-.28c-.4,0-.68-.14-1-.14L225.13,94l1-.95,2.31-2.73-2-2.86a30.71,30.71,0,0,1-5.45-21.93,29.68,29.68,0,0,1,6.54-15.12,30.22,30.22,0,0,1,20.71-11.31,6.09,6.09,0,0,0,5.31,3.41,5.86,5.86,0,0,0,0-11.72A6,6,0,0,0,248,34.3,34.59,34.59,0,0,0,223.5,47.51a35.75,35.75,0,0,0-1.36,42.77l-.41.41-4.36,4.22a4.47,4.47,0,0,0-1.23,4.36c.69,1.91,2.46,3.14,5.59,3.54H222a30.08,30.08,0,0,0,7.77.14l.54-.14c.41,0,.95-.13,1.5-.13a40.51,40.51,0,0,0,3.95-1h0a31.85,31.85,0,0,0,10.63,3.14,32.36,32.36,0,0,0,5,.27,35.45,35.45,0,0,0,27.65-13.35,35.09,35.09,0,0,0,7.49-17.57,30.29,30.29,0,0,0,.27-3.54,9,9,0,0,0,4.91-3.41,17.53,17.53,0,0,0,3-7.35V58.82c.14-.55.41-1.09.55-1.78.68-2,1.5-4.22,2.18-6.26.82-2.45,1.77-4.91,2.59-7.49a11.44,11.44,0,0,0,.68-3.82A8.48,8.48,0,0,0,298.29,32.8Z"></path><g class="d7313fc9-fa5c-42a9-8f3f-a13bb11ed7d8"><path class="fd854451-dc59-47c8-abc2-31ab68b4efce" d="M192.64,487.61a.57.57,0,0,0,.78,0l9.25-9a.56.56,0,0,0,0-.81l-1.57-1.58a.57.57,0,0,0-.8,0l-6.87,6.63a.57.57,0,0,1-.79,0l-3.39-3.18a.57.57,0,0,0-.83.06l-1.64,2a.58.58,0,0,0,.06.8Z"></path><path class="fd854451-dc59-47c8-abc2-31ab68b4efce" d="M212.36,463.69h-6.61v-3h-2.49v3h-17v-3h-2.49v3h-6.62v30.68h35.24Zm-32.75,2.49h4.13v1.74h2.49v-1.74h17v1.74h2.49v-1.74h4.13v4.61H179.61Zm30.27,25.7H179.61v-18.6h30.27Z"></path></g><path class="c67140a0-1f51-41ac-8b86-a527e8dd4378" d="M188.27,484.73a.57.57,0,0,0,.78,0l9.25-9a.57.57,0,0,0,0-.81l-1.57-1.58a.57.57,0,0,0-.8,0l-6.87,6.63a.57.57,0,0,1-.79,0l-3.39-3.18a.57.57,0,0,0-.83.06l-1.64,2a.57.57,0,0,0,.06.79Z"></path><path class="c67140a0-1f51-41ac-8b86-a527e8dd4378" d="M208,460.81h-6.61v-3h-2.49v3h-17v-3h-2.49v3h-6.62v30.68H208Zm-32.75,2.49h4.13v1.75h2.49V463.3h17v1.75h2.49V463.3h4.13v4.61H175.24ZM205.51,489H175.24V470.4h30.27Z"></path><g class="7d5b9191-3bf7-43c8-86ef-d80b2a2c38a1"><path class="2adad8fb-d833-4d0b-acf2-fae97487976b" d="M46.2,334.94a1.26,1.26,0,0,1,2.34.91L44.39,346.5c-.54,1.37-2.88.46-2.34-.92Z"></path><path class="2adad8fb-d833-4d0b-acf2-fae97487976b" d="M43,330.67a1.26,1.26,0,0,1,2.34.91l-3.12,8c-.54,1.37-2.88.45-2.35-.92Z"></path><path class="2adad8fb-d833-4d0b-acf2-fae97487976b" d="M51.55,334a1.26,1.26,0,0,1,2.34.91l-3.12,8c-.54,1.37-2.89.45-2.35-.92Z"></path><path class="2adad8fb-d833-4d0b-acf2-fae97487976b" d="M42.18,317l-10.4,2.81c5-12.31,5.71-12.21,12.68-15.47A47.75,47.75,0,0,0,42.18,317Z"></path><path class="2adad8fb-d833-4d0b-acf2-fae97487976b" d="M64.31,325.79l5.58,9c4.67-12.44,4.07-12.85,1.32-19.9A69.19,69.19,0,0,1,64.31,325.79Z"></path><path class="2adad8fb-d833-4d0b-acf2-fae97487976b" d="M57.34,330.06h0a1.73,1.73,0,0,1-2.23,1l-10.8-4.21a1.72,1.72,0,0,1-1-2.23h0a1.71,1.71,0,0,1,2.23-1l10.79,4.21A1.73,1.73,0,0,1,57.34,330.06Z"></path><path class="2adad8fb-d833-4d0b-acf2-fae97487976b" d="M75.25,293.79c.34-20.81-5.49-22.9-19.11-7.45-5.15,5.91-11.71,25.17-10.79,34L60,326C66.72,320,75,301.63,75.25,293.79Z"></path><path class="2adad8fb-d833-4d0b-acf2-fae97487976b" d="M65.74,299.44a3.33,3.33,0,1,1-1.9-4.32A3.34,3.34,0,0,1,65.74,299.44Z"></path></g><path class="c67140a0-1f51-41ac-8b86-a527e8dd4378" d="M38.34,329.46a1.26,1.26,0,0,1,2.35.92L36.53,341c-.53,1.38-2.88.46-2.34-.91Z"></path><path class="c67140a0-1f51-41ac-8b86-a527e8dd4378" d="M35.17,325.19a1.26,1.26,0,0,1,2.35.92l-3.13,8c-.54,1.37-2.88.46-2.35-.91Z"></path><path class="c67140a0-1f51-41ac-8b86-a527e8dd4378" d="M43.69,328.52a1.26,1.26,0,0,1,2.34.91l-3.12,8c-.54,1.38-2.89.46-2.35-.91Z"></path><path class="c67140a0-1f51-41ac-8b86-a527e8dd4378" d="M34.32,311.57l-10.39,2.8c5-12.31,5.7-12.2,12.67-15.47A47.89,47.89,0,0,0,34.32,311.57Z"></path><path class="c67140a0-1f51-41ac-8b86-a527e8dd4378" d="M56.45,320.31l5.58,9c4.67-12.43,4.07-12.84,1.32-19.9A68.72,68.72,0,0,1,56.45,320.31Z"></path><path class="c67140a0-1f51-41ac-8b86-a527e8dd4378" d="M49.48,324.59h0a1.72,1.72,0,0,1-2.23,1l-10.79-4.21a1.7,1.7,0,0,1-1-2.22h0a1.71,1.71,0,0,1,2.23-1l10.79,4.21A1.72,1.72,0,0,1,49.48,324.59Z"></path><path class="c67140a0-1f51-41ac-8b86-a527e8dd4378" d="M67.39,288.32c.34-20.81-5.49-22.91-19.11-7.45-5.15,5.91-11.71,25.17-10.78,34l14.65,5.72C58.86,314.56,67.18,296.16,67.39,288.32ZM52.1,299.24a7,7,0,1,1,8.83-4A6.88,6.88,0,0,1,52.1,299.24Z"></path><path class="c67140a0-1f51-41ac-8b86-a527e8dd4378" d="M57.88,294a3.33,3.33,0,1,1-1.9-4.31A3.33,3.33,0,0,1,57.88,294Z"></path><g class="f5aed083-1504-445b-9b4b-7a5dfc406325"><path class="624c142b-823c-4abe-a05b-543097fb2698" d="M386.75,446.47h1.56a.77.77,0,0,0,.25,0,1,1,0,0,0,.66-1.26,1,1,0,0,0-.91-.76h-5.62a.73.73,0,0,0-.25,0,1,1,0,0,0-.66,1.26,1,1,0,0,0,.91.76h1.55l-8.93,17a1.11,1.11,0,0,0,.15,1.24.88.88,0,0,0,1.32,0,.78.78,0,0,0,.16-.21l7.62-14.5v14a1.24,1.24,0,0,0,0,.27.93.93,0,0,0,1.15.72,1,1,0,0,0,.7-1V450l7.62,14.5a1,1,0,0,0,.15.21.89.89,0,0,0,1.33,0,1.11,1.11,0,0,0,.14-1.24Z"></path><path class="624c142b-823c-4abe-a05b-543097fb2698" d="M402.76,430l-.19.09,0,0,.24-.07a6.55,6.55,0,0,0-5.6-4.31l1.62,4.56.81,2.43,1.45,4.45A7.28,7.28,0,0,0,402.76,430Z"></path><path class="624c142b-823c-4abe-a05b-543097fb2698" d="M386.62,429.82l-12,4.69a2.11,2.11,0,0,0-1.14,2.62l2.51,7.76a1.83,1.83,0,0,0,2.39,1.25l12-4.68Z"></path><path class="624c142b-823c-4abe-a05b-543097fb2698" d="M399.21,438l-3.76-11.64a1.83,1.83,0,0,0-2.39-1.25l-3.53,1.38a2.1,2.1,0,0,0-1.14,2.62l3.76,11.64a1.83,1.83,0,0,0,2.39,1.25l3.53-1.37A2.11,2.11,0,0,0,399.21,438Z"></path><path class="624c142b-823c-4abe-a05b-543097fb2698" d="M372.05,438l-5.9,2.35A2.13,2.13,0,0,0,365,443l.32,1-1,.33a1.06,1.06,0,0,0-.57,1.31.92.92,0,0,0,1.2.63l.95-.33.32,1a1.83,1.83,0,0,0,2.39,1.25l5.89-2.35Z"></path></g><path class="c67140a0-1f51-41ac-8b86-a527e8dd4378" d="M381,447.66h1.64l.26,0a1.11,1.11,0,0,0,.69-1.33,1,1,0,0,0-.95-.8h-5.92a.78.78,0,0,0-.26,0,1.1,1.1,0,0,0-.7,1.33,1,1,0,0,0,1,.79h1.64l-9.41,17.87a1.17,1.17,0,0,0,.16,1.3.92.92,0,0,0,1.39,0,.87.87,0,0,0,.16-.23l8-15.26v14.72a.9.9,0,0,0,0,.28,1,1,0,0,0,1.21.77,1.07,1.07,0,0,0,.72-1.05V451.35l8,15.26a1.88,1.88,0,0,0,.16.23.93.93,0,0,0,1.4,0,1.15,1.15,0,0,0,.15-1.3Z"></path><path class="c67140a0-1f51-41ac-8b86-a527e8dd4378" d="M397.12,427.4l-.2.09,0,0,.25-.07a6.88,6.88,0,0,0-5.89-4.54l1.7,4.8.86,2.56,1.52,4.68A7.63,7.63,0,0,0,397.12,427.4Z"></path><path class="c67140a0-1f51-41ac-8b86-a527e8dd4378" d="M380.13,427.19l-12.66,4.93a2.22,2.22,0,0,0-1.2,2.77l2.63,8.17a1.94,1.94,0,0,0,2.52,1.31l12.67-4.93Zm1.53,11.2L372,442a.77.77,0,0,1-.29,0,.82.82,0,0,1-.78-.53.84.84,0,0,1,.48-1.08l9.68-3.65a.83.83,0,1,1,.59,1.56Z"></path><path class="c67140a0-1f51-41ac-8b86-a527e8dd4378" d="M393.39,435.82l-4-12.25a1.93,1.93,0,0,0-2.52-1.32l-3.72,1.45a2.22,2.22,0,0,0-1.2,2.77l4,12.25a1.93,1.93,0,0,0,2.52,1.32l3.72-1.45A2.24,2.24,0,0,0,393.39,435.82Zm-2.06-.92-4.39,1.56a.72.72,0,0,1-.28.05.83.83,0,0,1-.28-1.62l4.39-1.55a.83.83,0,1,1,.56,1.56Z"></path><path class="c67140a0-1f51-41ac-8b86-a527e8dd4378" d="M364.79,435.84l-6.21,2.48a2.23,2.23,0,0,0-1.2,2.76l.33,1-1,.34a1.11,1.11,0,0,0-.59,1.39,1,1,0,0,0,1.25.65l1-.34.33,1a1.94,1.94,0,0,0,2.52,1.31l6.21-2.47Zm.71,8.21-4.39,1.56a.86.86,0,0,1-.28,0,.83.83,0,0,1-.27-1.61l4.39-1.56a.83.83,0,1,1,.55,1.57Z"></path><path class="c67140a0-1f51-41ac-8b86-a527e8dd4378" d="M375.17,415.82l.58,1.87,1.87.58a.45.45,0,0,1,0,.86l-1.87.58-.58,1.87a.5.5,0,0,1-1,0l-.58-1.87-1.87-.58a.45.45,0,0,1,0-.86l1.87-.58.58-1.87A.5.5,0,0,1,375.17,415.82Z"></path><path class="c67140a0-1f51-41ac-8b86-a527e8dd4378" d="M400.67,446.61l.5,1.6,1.61.5a.39.39,0,0,1,0,.74l-1.61.49-.5,1.61a.44.44,0,0,1-.86,0l-.49-1.61-1.61-.49a.39.39,0,0,1,0-.74l1.61-.5.49-1.6A.43.43,0,0,1,400.67,446.61Z"></path><g class="9aceae16-0706-404a-872d-60f6dbdc4b79"><path class="68833130-0731-42a0-944b-6f7ad32a7d8a" d="M446.93,274.58a1.14,1.14,0,0,0,.51-.11l3.15-1.3a1.38,1.38,0,0,0,.75-1.79,1.35,1.35,0,0,0-1.77-.74l-3.16,1.3a1.39,1.39,0,0,0-.74,1.79A1.37,1.37,0,0,0,446.93,274.58Z"></path><path class="68833130-0731-42a0-944b-6f7ad32a7d8a" d="M440.54,291.13a1.35,1.35,0,0,0-1.77-.74,1.38,1.38,0,0,0-.72,1.8l1.31,3.16a1.35,1.35,0,0,0,1.25.84,1.67,1.67,0,0,0,.52-.11,1.38,1.38,0,0,0,.72-1.8Z"></path><path class="68833130-0731-42a0-944b-6f7ad32a7d8a" d="M433.91,268.38a10.24,10.24,0,1,0,10.25,10.23A10.25,10.25,0,0,0,433.91,268.38Z"></path><path class="68833130-0731-42a0-944b-6f7ad32a7d8a" d="M429,290.39a1.35,1.35,0,0,0-1.77.74L426,294.28a1.39,1.39,0,0,0,.72,1.8,1.61,1.61,0,0,0,.52.11,1.37,1.37,0,0,0,1.25-.84l1.31-3.16A1.38,1.38,0,0,0,429,290.39Z"></path><path class="68833130-0731-42a0-944b-6f7ad32a7d8a" d="M450.61,284.06l-3.16-1.31a1.36,1.36,0,0,0-1,2.53l3.15,1.31a1.59,1.59,0,0,0,.51.1,1.37,1.37,0,0,0,.52-2.63Z"></path><path class="68833130-0731-42a0-944b-6f7ad32a7d8a" d="M438.77,266.83a1.39,1.39,0,0,0,.52.11,1.36,1.36,0,0,0,1.25-.84l1.31-3.16a1.38,1.38,0,0,0-.72-1.79,1.34,1.34,0,0,0-1.77.73L438.05,265A1.38,1.38,0,0,0,438.77,266.83Z"></path><path class="68833130-0731-42a0-944b-6f7ad32a7d8a" d="M421.37,271.94l-3.15-1.3a1.37,1.37,0,0,0-1,2.53l3.16,1.3a1.33,1.33,0,0,0,.5.11,1.35,1.35,0,0,0,1.25-.85A1.37,1.37,0,0,0,421.37,271.94Z"></path><path class="68833130-0731-42a0-944b-6f7ad32a7d8a" d="M427.26,266.1a1.35,1.35,0,0,0,1.25.84,1.43,1.43,0,0,0,.52-.11,1.38,1.38,0,0,0,.72-1.8l-1.31-3.15a1.34,1.34,0,0,0-1.77-.73,1.37,1.37,0,0,0-.72,1.79Z"></path><path class="68833130-0731-42a0-944b-6f7ad32a7d8a" d="M420.35,282.74l-3.16,1.3a1.39,1.39,0,0,0-.74,1.79,1.35,1.35,0,0,0,1.25.85,1.1,1.1,0,0,0,.5-.11l3.16-1.3a1.38,1.38,0,0,0,.74-1.78A1.33,1.33,0,0,0,420.35,282.74Z"></path></g><path class="c67140a0-1f51-41ac-8b86-a527e8dd4378" d="M444,269.76a1.1,1.1,0,0,0,.5-.11l3.16-1.3a1.38,1.38,0,0,0,.74-1.78,1.34,1.34,0,0,0-1.77-.75l-3.15,1.3a1.37,1.37,0,0,0,.52,2.64Z"></path><path class="c67140a0-1f51-41ac-8b86-a527e8dd4378" d="M437.61,286.31a1.35,1.35,0,1,0-2.49,1.06l1.3,3.16a1.36,1.36,0,0,0,1.25.84,1.35,1.35,0,0,0,.52-.11,1.37,1.37,0,0,0,.72-1.8Z"></path><path class="c67140a0-1f51-41ac-8b86-a527e8dd4378" d="M431,263.56a10.24,10.24,0,1,0,10.25,10.23A10.25,10.25,0,0,0,431,263.56Z"></path><path class="c67140a0-1f51-41ac-8b86-a527e8dd4378" d="M426.09,285.57a1.36,1.36,0,0,0-1.77.74l-1.3,3.15a1.38,1.38,0,0,0,.72,1.8,1.35,1.35,0,0,0,.52.11,1.37,1.37,0,0,0,1.25-.84l1.3-3.16A1.38,1.38,0,0,0,426.09,285.57Z"></path><path class="c67140a0-1f51-41ac-8b86-a527e8dd4378" d="M447.67,279.24l-3.15-1.31a1.37,1.37,0,0,0-1,2.53l3.16,1.31a1.53,1.53,0,0,0,.5.1,1.37,1.37,0,0,0,.52-2.63Z"></path><path class="c67140a0-1f51-41ac-8b86-a527e8dd4378" d="M435.84,262a1.35,1.35,0,0,0,.52.11,1.37,1.37,0,0,0,1.25-.84l1.3-3.16a1.38,1.38,0,0,0-.72-1.79,1.35,1.35,0,0,0-1.77.73l-1.3,3.15A1.37,1.37,0,0,0,435.84,262Z"></path><path class="c67140a0-1f51-41ac-8b86-a527e8dd4378" d="M418.44,267.12l-3.16-1.3a1.36,1.36,0,0,0-1,2.53l3.15,1.3a1.42,1.42,0,0,0,.51.11,1.35,1.35,0,0,0,1.25-.85A1.38,1.38,0,0,0,418.44,267.12Z"></path><path class="c67140a0-1f51-41ac-8b86-a527e8dd4378" d="M424.32,261.28a1.33,1.33,0,0,0,1.77.73,1.38,1.38,0,0,0,.72-1.8l-1.3-3.15a1.35,1.35,0,1,0-2.49,1.06Z"></path><path class="c67140a0-1f51-41ac-8b86-a527e8dd4378" d="M417.41,277.92l-3.15,1.31a1.38,1.38,0,0,0-.75,1.78,1.35,1.35,0,0,0,1.25.85,1.12,1.12,0,0,0,.51-.11l3.15-1.3a1.37,1.37,0,0,0,.75-1.78A1.34,1.34,0,0,0,417.41,277.92Z"></path><path class="c506c41f-515d-4a0d-a7a3-e933836a4a06" d="M317.67,228.59l17.48-20.39a119.47,119.47,0,0,0-153.48-5.85c-.8.62-1.57,1.26-2.35,1.9l16.48,21.23a92.63,92.63,0,0,1,121.87,3.11Z"></path><path class="8778c062-daf7-4750-bf8e-eadd5dcc39cc" d="M187.58,233.19,171,211.76a119.43,119.43,0,0,0,1.81,171.64l16.44-21.35a92.65,92.65,0,0,1-1.62-128.86Z"></path><path class="3ea23cee-e360-4a7b-8c7c-536cc1348db4" d="M341.9,328.84l25.36,8.29A119.36,119.36,0,0,0,349.2,223.5q-3-3.8-6.15-7.28l-17.56,20.49a92.77,92.77,0,0,1,16.41,92.13Z"></path><path class="a66fcd6c-8347-483d-aa59-144aa31eb59b" d="M337.36,339.16A92.65,92.65,0,0,1,260,389.29L259.41,416a119.42,119.42,0,0,0,102.67-66.57"></path><path class="a0229a05-89e4-4a21-ae93-ed483eb930b7" d="M197.6,369.54a92.17,92.17,0,0,0,51.16,19.68l-2,26.63a119.43,119.43,0,0,1-64.16-24.13"></path><path class="083db380-ff31-4b4f-93b8-33e85e889786" d="M249.23,351.74l-.07.24a17.88,17.88,0,0,0,10.31-4.71c10.51-9.75,24.61-24.8,28.7-38.46a8.08,8.08,0,0,0,7.88-7.9v-.1a7.78,7.78,0,0,0-3.51-6.42,1.08,1.08,0,0,0,.07-.31,9.49,9.49,0,0,0-2.84-.9,7.87,7.87,0,0,0-1.29-.19,43.19,43.19,0,0,0-2.29-7.69l.26.24s-4.2-10-8.52-13.34l-.05-.06c2.77-1,4.67-1.83,6-2.46a29.21,29.21,0,0,0,4.58-2.06l-10.09-6.2A89.61,89.61,0,0,0,252,250.17c-13.21-2.18-21.1-.26-25.79,2.93h0c-6.57,3.62-7.24-.83-7.24-.83-2.61,5.44-.63,11.69.11,13.62a57.1,57.1,0,0,0-5.3-7,7.77,7.77,0,0,1-.79,5.94l-.1.05a18.25,18.25,0,0,0-2.18,2.4h0c-6.41,8.47-5.58,21.85-5.58,21.85a2.18,2.18,0,0,0,.79.48,1.87,1.87,0,0,0,.67.09c-.33,1.19-.62,2.39-.85,3.61H205l-.38,0v0l-.15,0a8.62,8.62,0,0,0-1.13.2,7.62,7.62,0,0,0-2.13.86h0a7.78,7.78,0,0,0-4,6.76,8.1,8.1,0,0,0,8.32,7.87,5.63,5.63,0,0,0,.71,0c.27.89.59,1.79.94,2.69,5.06,12.88,18.08,26.55,27.94,35.61A17.84,17.84,0,0,0,249.16,352l.07-.24"></path><path class="9b09570b-fbc9-40da-8ea1-f635de67b92b" d="M218.74,295.2c-.18-2-.33-4.16-.4-6.31a7.56,7.56,0,1,0,.34,15.12,8.32,8.32,0,0,0,1.12-.08,24.27,24.27,0,0,1-1.1-7C218.7,296.36,218.72,295.78,218.74,295.2Zm-.18,4.93s-2.55.59-3.84-3a3.26,3.26,0,0,1-.21-1.24,2.12,2.12,0,0,1,.09-.57c.6-2.07,3.85-2.57,3.85-2.57l0,2.58.07,4.12h0Z"></path><path class="c4753bb4-8b3a-4916-805e-e6b447e33bfb" d="M214.13,290.25s.42,1,3.45,2.64l1-.24-.22-3.76A8.13,8.13,0,0,0,214.13,290.25Z"></path><path class="52d8348e-012f-4d43-9c2d-ef4cc77cb2d2" d="M296.93,300.34s2.88.62,4.34-3.15a3.22,3.22,0,0,0,.23-1.3,2.28,2.28,0,0,0-.11-.59c-.56-1.55-3.22-2.12-4.06-2.26.84.14,3.5.71,4.06,2.26-.67-2.17-4.33-2.69-4.33-2.69l0,2.66v0l-.07,4.3Zm.47-7.24h0Z"></path><path class="38bc613d-673b-4cc3-b395-6837e24bad74" d="M301.34,295.87a2.61,2.61,0,0,0-.1-.57A2.13,2.13,0,0,1,301.34,295.87Z"></path><path class="9b09570b-fbc9-40da-8ea1-f635de67b92b" d="M297.15,296.94a24.27,24.27,0,0,1-1.1,7,8.32,8.32,0,0,0,1.12.08,7.56,7.56,0,1,0,.33-15.12c-.06,2.15-.22,4.31-.4,6.31C297.13,295.78,297.15,296.36,297.15,296.94Zm.15,2.49h0l.07-4.12,0-2.58s3.24.5,3.84,2.57a2.13,2.13,0,0,1,.1.57,3.47,3.47,0,0,1-.21,1.24c-1.29,3.61-3.84,3-3.84,3Z"></path><path class="c4753bb4-8b3a-4916-805e-e6b447e33bfb" d="M301.71,290.25s-.41,1-3.45,2.64l-1-.24.21-3.76A8.11,8.11,0,0,1,301.71,290.25Z"></path><path class="38bc613d-673b-4cc3-b395-6837e24bad74" d="M213.74,296.12a2.12,2.12,0,0,1,.09-.57A1.75,1.75,0,0,0,213.74,296.12Z"></path><polygon class="38bc613d-673b-4cc3-b395-6837e24bad74" points="217.25 295.53 217.34 299.65 217.35 299.65 217.25 295.53"></polygon><path class="9db70580-a8ff-493c-809e-ff5de1fa1841" d="M219.53,306.77l-.92-2.62C218.87,305,219.18,305.89,219.53,306.77Z"></path><path class="9db70580-a8ff-493c-809e-ff5de1fa1841" d="M225.43,296.65a7.73,7.73,0,0,0-7.21-7.52,27,27,0,0,0-.55,6.21,63.85,63.85,0,0,0,.94,8.81A7.71,7.71,0,0,0,225.43,296.65Z"></path><path class="9db70580-a8ff-493c-809e-ff5de1fa1841" d="M257.8,255.83a39.65,39.65,0,0,0-12.23,2,35.07,35.07,0,0,0-13.21,8c.06-.53.1-.81.1-.81a41.34,41.34,0,0,0-14.24,24.11,7.53,7.53,0,0,1,.39,15l.92,2.62c4.85,12.36,17.33,25.47,26.79,34.16a17.25,17.25,0,0,0,8.33,4.24h0a17,17,0,0,0,5.18.22h0a17.09,17.09,0,0,0,9.88-4.52c11.92-11.05,28.67-29.22,28.63-43.89C298.28,274.2,280.14,255.78,257.8,255.83Zm-6.74,83.08Z"></path><path class="9b09570b-fbc9-40da-8ea1-f635de67b92b" d="M248.94,334.71C226.43,307,232.32,264.8,232.32,264.8A41.4,41.4,0,0,0,218.08,289s-1.47,4.94.39,15l.81,2.59c4.86,12.38,17.45,25.54,26.9,34.25a17.22,17.22,0,0,0,8.33,4.25,17,17,0,0,0,5.18.22l.07-.23A59.71,59.71,0,0,1,248.94,334.71Z"></path><path class="52d8348e-012f-4d43-9c2d-ef4cc77cb2d2" d="M240.38,302a2.57,2.57,0,0,1-2.52-2.62l0-9a2.52,2.52,0,1,1,5,0l0,9A2.56,2.56,0,0,1,240.38,302Z"></path><path class="3e0e9682-ce22-4464-9e06-442ce24e360a" d="M281.6,284s-6.63-5.94-9.39-.4A39.63,39.63,0,0,1,281.6,284Z"></path><path class="3e0e9682-ce22-4464-9e06-442ce24e360a" d="M233.77,284.9s6.63-5.94,9.39-.4A39.63,39.63,0,0,0,233.77,284.9Z"></path><path class="0ad13cf0-2787-4b21-93ac-9eb17b01b62a" d="M250.36,320s6.72,7.65,18.24,0"></path><path class="3e0e9682-ce22-4464-9e06-442ce24e360a" d="M221.2,284.84a14.11,14.11,0,0,1-2.8.72A3.32,3.32,0,0,0,221.2,284.84Z"></path><path class="3e0e9682-ce22-4464-9e06-442ce24e360a" d="M233.77,268.16s-5.59,9.29-9.62,14C228.82,277.09,233.77,268.16,233.77,268.16Z"></path><path class="3e0e9682-ce22-4464-9e06-442ce24e360a" d="M228.3,261.62l2.95,1.81A7,7,0,0,0,228.3,261.62Z"></path><path class="3e0e9682-ce22-4464-9e06-442ce24e360a" d="M221.2,284.84h0a9.52,9.52,0,0,0,3-2.64A17.51,17.51,0,0,1,221.2,284.84Z"></path><path class="956cb5b6-1a5e-4251-9f43-a6d2d2dba366" d="M228.3,261.62a4.41,4.41,0,0,0-3.22.24c-8.41,7.69-7.44,23.25-7.44,23.25a1.87,1.87,0,0,0,.76.45,14.11,14.11,0,0,0,2.8-.72,17.51,17.51,0,0,0,3-2.64c4-4.75,9.62-14,9.62-14l-2.52-4.73Z"></path><path class="956cb5b6-1a5e-4251-9f43-a6d2d2dba366" d="M225.94,256.11s4.86,5.49,5.95,8.52l-7.35,2.24L223,264.16A7.4,7.4,0,0,0,225.94,256.11Z"></path><path class="920062ad-e2a1-4dbd-b549-6908ed08dae3" d="M254.62,310.23a1.7,1.7,0,0,0,.72.54c1.16.82,3.75,2,8.91.17,0,0,.86-1.32-3.61-1.4-.33,0-.84,0-1.34,0a.9.9,0,0,1-.95-.91c.13-3.08.18-11.84.21-17.42a.4.4,0,0,0-.79-.06L254.62,310A.47.47,0,0,0,254.62,310.23Z"></path><path class="956cb5b6-1a5e-4251-9f43-a6d2d2dba366" d="M283.12,270.34l12.47,11.34s-4.08-9.71-8.24-12.84Z"></path><path class="f452e88f-9ee5-46ef-9744-861906ccbb73" d="M275.28,256.11l6.39,14.71s15.21-5.59,15.8-6.32l-12.71-7.81Z"></path><path class="3e0e9682-ce22-4464-9e06-442ce24e360a" d="M295.33,264.33c-13.52-12.32-32.74-16.56-32.74-16.56-12.67-2.09-20.23-.25-24.73,2.81h0c-6.29,3.47-6.94-.8-6.94-.8-3,6.27.34,13.65.34,13.65l2.52,4.73c18.62,13.59,39.47,5.34,39.47,5.34C299.6,265.45,295.33,264.33,295.33,264.33Z"></path><path class="52d8348e-012f-4d43-9c2d-ef4cc77cb2d2" d="M276.38,300.93a2.57,2.57,0,0,1-2.52-2.62l0-9a2.52,2.52,0,1,1,5,0l0,9A2.57,2.57,0,0,1,276.38,300.93Z"></path></g></g></svg>